<svg width="26" height="55" viewBox="0 0 26 55" fill="none" xmlns="http://www.w3.org/2000/svg">
<path d="M17.8366 6.13011C15.4997 3.39137 13.4872 0.609702 13.0761 0.0320812C13.0663 0.0219439 13.0546 0.0138731 13.0415 0.00835836C13.0285 0.00284363 13.0145 0 13.0003 0C12.9861 0 12.9721 0.00284363 12.9591 0.00835836C12.9461 0.0138731 12.9343 0.0219439 12.9245 0.0320812C12.5134 0.609803 10.501 3.39137 8.16391 6.13011C-11.8954 31.3994 11.3233 48.4526 11.3233 48.4526L11.518 48.581C11.6911 51.2127 12.1239 55 12.1239 55H13.8551C13.8551 55 14.2877 51.2341 14.4609 48.5811L14.6557 48.4312C14.6773 48.4527 37.896 31.3995 17.8366 6.13011ZM12.9894 48.0673C12.9894 48.0673 11.9508 47.1902 11.6694 46.741V46.698L12.9245 19.1821C12.9245 19.0965 13.0544 19.0965 13.0544 19.1821L14.3095 46.698V46.741C14.0281 47.1902 12.9894 48.0674 12.9894 48.0674" fill="#01EC64"/>
</svg>
